# xmcd
#
# Track frame offsets: 
#        150
#        8309
#        18276
#        26640
#        30513
#        41488
#        44703
#        56508
#        65594
#        72831
#        75491
#        84813
#        85271
#        96605
#        98052
#        98514
#        100707
#        113538
#
# Disc length: 1652 seconds
#
# Revision: 0
# Processed by: cddbd v1.5.2PL0 Copyright (c) Steve Scherf et al.
# Submitted via: ExactAudioCopy v0.95b3
#
DISCID=c9067212
DTITLE=The Beatles  - Way Beyond Compare - Episode 27 Saturday Club and 
DTITLE=Pop Goes The Beatles (30 July-1 August1963)  FLAC
DYEAR=1900
DGENRE=
TTITLE0=Long Tall Sally
TTITLE1=She Loves You
TTITLE2=Glad All Over
TTITLE3='What Box..._'
TTITLE4=Twist and Shout
TTITLE5='dear, Wack...'
TTITLE6=You Really Got a Hold on Me
TTITLE7=I'll Get You
TTITLE8=Ooh! My Soul
TTITLE9='ooh! My Arms...'
TTITLE10=Don't Ever Change
TTITLE11='A Modest Request...'
TTITLE12=Twist and Shout
TTITLE13='Beatle fans the world over have been waiting for...'
TTITLE14=She Loves You
TTITLE15='We Hate You...'
TTITLE16=Anna (Go to Him)
TTITLE17=A Shot of Rhythm and Blues
EXTD=
EXTT0=
EXTT1=
EXTT2=
EXTT3=
EXTT4=
EXTT5=
EXTT6=
EXTT7=
EXTT8=
EXTT9=
EXTT10=
EXTT11=
EXTT12=
EXTT13=
EXTT14=
EXTT15=
EXTT16=
EXTT17=
PLAYORDER=
